mtllib materials.mtl
v -0.3042068 0.2473845 0.1986787
v -0.3142068 0.2473845 0.2013582
v -0.3142067 -0.5126154 0.2013582
v -0.3042067 -0.5126154 0.1986787
v -0.3215273 0.2473845 0.2086787
v -0.3215272 -0.5126154 0.2086787
v -0.3242068 0.2473845 0.2186787
v -0.3242067 -0.5126154 0.2186787
v -0.3215273 0.2473845 0.2286787
v -0.3215272 -0.5126154 0.2286787
v -0.3142068 0.2473845 0.2359992
v -0.3142067 -0.5126154 0.2359992
v -0.3042068 0.2473845 0.2386787
v -0.3042067 -0.5126154 0.2386787
v -0.2942068 0.2473845 0.2359992
v -0.2942066 -0.5126154 0.2359992
v -0.2868863 0.2473845 0.2286787
v -0.2868862 -0.5126154 0.2286787
v -0.2842068 0.2473845 0.2186787
v -0.2842067 -0.5126154 0.2186787
v -0.2868863 0.2473845 0.2086787
v -0.2868862 -0.5126154 0.2086787
v -0.2942068 0.2473845 0.2013582
v -0.2942067 -0.5126154 0.2013582
v -0.3042067 -0.5226154 -0.1713213
v -0.3142067 -0.5226154 -0.1740008
v -0.3142068 0.2373845 -0.1740008
v -0.3042068 0.2373845 -0.1713213
v -0.3215272 -0.5226154 -0.1813213
v -0.3215273 0.2373845 -0.1813213
v -0.3242067 -0.5226154 -0.1913213
v -0.3242068 0.2373845 -0.1913213
v -0.3215272 -0.5226154 -0.2013213
v -0.3215273 0.2373845 -0.2013213
v -0.3142067 -0.5226154 -0.2086418
v -0.3142068 0.2373845 -0.2086418
v -0.3042067 -0.5226154 -0.2113213
v -0.3042068 0.2373845 -0.2113213
v -0.2942067 -0.5226154 -0.2086418
v -0.2942068 0.2373845 -0.2086418
v -0.2868862 -0.5226154 -0.2013213
v -0.2868863 0.2373845 -0.2013213
v -0.2842067 -0.5226154 -0.1913213
v -0.2842068 0.2373845 -0.1913213
v -0.2868862 -0.5226154 -0.1813213
v -0.2868863 0.2373845 -0.1813213
v -0.2942067 -0.5226154 -0.1740008
v -0.2942068 0.2373845 -0.1740008
v 0.3079566 0.2252666 0.1995965
v 0.2982581 0.2250095 0.2032094
v 0.3166088 -0.5347537 0.1984012
v 0.3263073 -0.5344967 0.1947883
v 0.2916656 0.2247997 0.2111891
v 0.3100163 -0.5349635 0.2063808
v 0.2899457 0.2246936 0.2213974
v 0.3082964 -0.5350696 0.2165892
v 0.2935591 0.2247194 0.2310991
v 0.3119098 -0.5350437 0.2262909
v 0.3015376 0.2248704 0.2376946
v 0.3198883 -0.5348928 0.2328863
v 0.3117434 0.225106 0.2394165
v 0.3300941 -0.5346572 0.2346083
v 0.3214419 0.2253632 0.2358037
v 0.3397926 -0.5344 0.2309954
v 0.3280344 0.2255729 0.227824
v 0.3463851 -0.5341903 0.2230157
v 0.3297543 0.225679 0.2176156
v 0.348105 -0.5340842 0.2128074
v 0.3261409 0.2256531 0.207914
v 0.3444916 -0.5341101 0.2031057
v 0.3181624 0.2255022 0.2013185
v 0.3365131 -0.534261 0.1965103
v 0.2957932 0.2273845 -0.2013213
v 0.2857932 0.2273845 -0.1986418
v 0.2857932 -0.5326155 -0.1986418
v 0.2957932 -0.5326155 -0.2013213
v 0.2784727 0.2273845 -0.1913213
v 0.2784728 -0.5326155 -0.1913213
v 0.2757933 0.2273845 -0.1813213
v 0.2757933 -0.5326155 -0.1813213
v 0.2784727 0.2273845 -0.1713213
v 0.2784727 -0.5326155 -0.1713213
v 0.2857932 0.2273845 -0.1640008
v 0.2857932 -0.5326155 -0.1640008
v 0.2957932 0.2273845 -0.1613213
v 0.2957932 -0.5326155 -0.1613213
v 0.3057933 0.2273845 -0.1640008
v 0.3057933 -0.5326155 -0.1640008
v 0.3131137 0.2273845 -0.1713213
v 0.3131137 -0.5326155 -0.1713213
v 0.3157932 0.2273845 -0.1813213
v 0.3157932 -0.5326155 -0.1813213
v 0.3131137 0.2273845 -0.1913213
v 0.3131137 -0.5326155 -0.1913213
v 0.3057932 0.2273845 -0.1986418
v 0.3057933 -0.5326155 -0.1986418
v -0.2842068 -0.05261546 0.3386787
v -0.2842067 -0.05261558 -0.1713213
v -0.2842067 0.007384419 -0.1713213
v -0.2842068 0.007384479 0.3136787
v -0.2842068 -0.01261547 0.3386787
v 0.2857932 -0.05261546 0.3386787
v 0.2857932 -0.01261547 0.3386787
v 0.2857932 0.007384479 0.3136787
v 0.2857932 0.007384419 -0.1713213
v 0.2857932 -0.05261558 -0.1713213
v -0.3242068 0.2273852 -0.2213222
v -0.2842068 0.2273852 -0.2213222
v -0.2842068 0.2473852 -0.2113224
v -0.3242068 0.2473852 -0.2113224
v -0.3242068 0.2273845 0.2486787
v -0.3242067 0.2473845 0.2386787
v -0.2842067 0.2473845 0.2386787
v -0.2842067 0.2273845 0.2486787
v 0.3292579 0.2233724 0.2480122
v 0.2892708 0.2239962 0.2488161
v 0.2893863 0.2440772 0.2389807
v 0.3293734 0.2434535 0.2381767
v 0.3198721 0.2273287 -0.2218784
v 0.3203869 0.2472414 -0.2117187
v 0.2803999 0.2478651 -0.2109147
v 0.279885 0.2279525 -0.2210745
v -0.2442068 -0.06761551 -0.2063213
v -0.2468863 -0.07761551 -0.2063213
v -0.2468863 -0.07761547 0.2236787
v -0.2442068 -0.06761548 0.2236787
v -0.2542068 -0.08493602 -0.2063213
v -0.2542068 -0.08493598 0.2236787
v -0.2642068 -0.0876155 -0.2063213
v -0.2642068 -0.08761546 0.2236787
v -0.2742068 -0.08493601 -0.2063213
v -0.2742068 -0.08493598 0.2236787
v -0.2815273 -0.0776155 -0.2063213
v -0.2815273 -0.07761547 0.2236787
v -0.2842068 -0.06761548 -0.2063213
v -0.2842068 -0.06761545 0.2236787
v -0.2815273 -0.05761549 -0.2063213
v -0.2815273 -0.05761546 0.2236787
v -0.2742068 -0.050295 -0.2063213
v -0.2742068 -0.05029497 0.2236787
v -0.2642068 -0.0476155 -0.2063213
v -0.2642068 -0.04761547 0.2236787
v -0.2542068 -0.050295 -0.2063213
v -0.2542068 -0.05029497 0.2236787
v -0.2468863 -0.05761549 -0.2063213
v -0.2468863 -0.05761549 0.2236787
v -0.2742069 0.09738454 -0.2113214
v -0.2842068 0.1073846 -0.1813214
v 0.2757933 0.1073845 -0.1813213
v 0.2857934 0.09738448 -0.2113214
v -0.2842069 0.4373848 -0.2113214
v 0.2757935 0.4373847 -0.2113213
v 0.2757934 0.4373846 -0.1913213
v -0.2842068 0.4373847 -0.1913213
v -0.2842077 0.1923846 -0.2213213
v 0.2757941 0.1923846 -0.2213213
v -0.2842068 0.1898846 -0.1613213
v 0.2757934 0.1898845 -0.1613213
v -0.2842068 0.2723847 -0.1613213
v -0.2842068 0.3548847 -0.1613213
v 0.2757934 0.3548846 -0.1613213
v 0.2757934 0.2723846 -0.1613213
v 0.2757942 0.3848853 -0.2213213
v -0.2842076 0.3848855 -0.2213213
v 0.2557933 -0.04761547 -0.2063213
v 0.2657933 -0.05029497 -0.2063213
v 0.2657932 -0.05029494 0.2236788
v 0.2557932 -0.04761544 0.2236787
v 0.2731138 -0.05761549 -0.2063213
v 0.2731137 -0.05761546 0.2236788
v 0.2757933 -0.06761548 -0.2063213
v 0.2757932 -0.06761545 0.2236788
v 0.2731138 -0.07761548 -0.2063213
v 0.2731137 -0.07761545 0.2236788
v 0.2657933 -0.08493601 -0.2063213
v 0.2657932 -0.08493596 0.2236788
v 0.2557933 -0.0876155 -0.2063213
v 0.2557932 -0.08761546 0.2236788
v 0.2457933 -0.08493601 -0.2063213
v 0.2457932 -0.08493596 0.2236788
v 0.2384728 -0.07761548 -0.2063213
v 0.2384727 -0.07761545 0.2236788
v 0.2357933 -0.06761548 -0.2063213
v 0.2357932 -0.06761545 0.2236787
v 0.2384728 -0.05761549 -0.2063213
v 0.2384727 -0.05761546 0.2236787
v 0.2457933 -0.05029497 -0.2063213
v 0.2457932 -0.05029494 0.2236787
vn 8.742278E-08 0 -1
vn -0.4999999 -8.742278E-08 -0.8660254
vn -0.8660254 -1.514207E-07 -0.5000001
vn -1 -1.748456E-07 -4.371139E-08
vn -0.8660254 -1.514207E-07 0.5
vn -0.5000001 -8.742278E-08 0.8660253
vn -6.617445E-22 1.528548E-14 1
vn 0.5000002 8.742282E-08 0.8660254
vn 0.8660254 1.514207E-07 0.5
vn 1 1.748456E-07 7.549789E-08
vn 0.8660255 1.514207E-07 -0.4999998
vn 0.4999999 8.742273E-08 -0.8660255
vn -1.748456E-07 1 -1.528548E-14
vn 1.748456E-07 -1 1.528548E-14
vn 8.742278E-08 0 -1
vn -0.4999999 -8.742278E-08 -0.8660254
vn -0.8660254 -1.514207E-07 -0.5000001
vn -1 -1.748456E-07 -4.371139E-08
vn -0.8660254 -1.514207E-07 0.5
vn -0.5000001 -8.742278E-08 0.8660253
vn -6.617445E-22 1.528548E-14 1
vn 0.5000002 8.742282E-08 0.8660254
vn 0.8660254 1.514207E-07 0.5
vn 1 1.748456E-07 7.549789E-08
vn 0.8660255 1.514207E-07 -0.4999998
vn 0.4999999 8.742273E-08 -0.8660255
vn -1.748456E-07 1 -1.528548E-14
vn 1.748456E-07 -1 1.528548E-14
vn -0.09467152 0.00401353 -0.9955007
vn -0.5795959 -0.008842166 -0.8148564
vn -0.9092181 -0.01932861 -0.4158719
vn -0.995216 -0.02463597 0.09454516
vn -0.8145465 -0.02334214 0.5796289
vn -0.4156201 -0.0157938 0.9094015
vn 0.09467161 -0.004013527 0.9955007
vn 0.5795962 0.008842172 0.8148562
vn 0.9092181 0.01932861 0.4158718
vn 0.995216 0.02463597 -0.09454513
vn 0.8145466 0.02334214 -0.5796288
vn 0.4156198 0.0157938 -0.9094016
vn -0.02414566 0.9996884 0.006326652
vn 0.02414566 -0.9996884 -0.006326652
vn 8.706454E-08 1.656807E-10 -1
vn -0.4999999 -1.303972E-09 -0.8660254
vn -0.8660254 -2.424226E-09 -0.5000001
vn -1 -2.894911E-09 -4.335315E-08
vn -0.8660254 -2.589907E-09 0.5
vn -0.5000001 -1.590939E-09 0.8660253
vn 3.582343E-10 -1.656804E-10 1
vn 0.5000002 1.303973E-09 0.8660254
vn 0.8660254 2.424226E-09 0.5
vn 1 2.894911E-09 7.513966E-08
vn 0.8660255 2.589907E-09 -0.4999998
vn 0.4999999 1.590939E-09 -0.8660255
vn -2.894911E-09 1 1.656804E-10
vn 2.894911E-09 -1 -1.656804E-10
vn -1 0 -8.742278E-08
vn 1 0 8.742278E-08
vn -1.528548E-14 -1 1.748456E-07
vn -6.509355E-08 0.7808698 0.6246938
vn -8.742278E-08 1.748456E-07 1
vn 8.742278E-08 -1.748456E-07 -1
vn 1.1905E-14 1 -1.213911E-07
vn -1.129848E-07 0.4472073 -0.8944305
vn -2.192293E-08 0.4472136 0.8944272
vn -1.748456E-07 -1 1.748456E-07
vn 2.870036E-14 1 -1.168718E-07
vn -1 1.748456E-07 1.192093E-07
vn 1 -1.748456E-07 -1.192093E-07
vn 0.02490923 0.4396069 0.897845
vn -0.01081351 0.4546736 -0.8905926
vn -0.01575921 -0.9998429 -0.008105033
vn 0.01575939 0.9998429 0.008104972
vn 0.9996765 -0.01559365 -0.02009925
vn -0.9996765 0.01559365 0.02009925
vn 0.9659256 -0.2588197 -1.393346E-09
vn 0.7071061 -0.7071075 2.145415E-09
vn 0.2588183 -0.965926 2.648993E-08
vn -0.2588198 -0.9659257 1.326368E-08
vn -0.7071061 -0.7071075 4.222475E-08
vn -0.9659256 -0.2588196 5.722463E-08
vn -0.9659256 0.2588198 4.359349E-08
vn -0.7071053 0.7071082 -3.057853E-08
vn -0.2588197 0.9659257 -2.889782E-08
vn 0.2588198 0.9659256 -6.193303E-08
vn 0.7071054 0.7071083 -2.403679E-08
vn 0.9659258 0.2588192 -1.839628E-08
vn 0 -5.960464E-08 -1
vn 0 5.960464E-08 1
vn -1.326E-07 -0.9486833 0.3162281
vn 1.192093E-07 1 1.748456E-07
vn -0.9528535 -0.1292075 -0.2745465
vn 0.9528533 0.1291937 0.2745537
vn 9.666008E-08 -0.104684 -0.9945055
vn -5.209654E-08 -0.2356003 0.97185
vn -1.748456E-07 -1.748456E-07 1
vn -1.748456E-07 -1.748456E-07 1
vn -5.731622E-08 0.3417429 0.9397935
vn 1.049966E-07 4.767971E-09 -1
vn 1.210473E-07 0.1871144 -0.9823381
vn 1 -1.192093E-07 1.748456E-07
vn 1 -1.192093E-07 1.748456E-07
vn 1 -1.192093E-07 1.748456E-07
vn 1 -1.192093E-07 1.748456E-07
vn 1 1.634327E-05 -2.316759E-06
vn 1 -8.932927E-07 2.845672E-05
vn -1 7.384758E-07 2.330031E-05
vn -1 1.487869E-05 -1.909598E-06
vn -1 5.417422E-06 1.437628E-05
vn -1 -2.420307E-07 1.199607E-05
vn -1 1.192092E-07 1.162942E-05
vn -1 -1.564536E-06 6.340309E-06
vn 0.2588197 0.9659257 -1.371354E-08
vn 0.7071075 0.7071062 8.363321E-08
vn 0.965926 0.2588184 1.79951E-07
vn 0.9659257 -0.2588198 1.975784E-07
vn 0.7071075 -0.7071062 2.080062E-07
vn 0.2588196 -0.9659258 1.600518E-07
vn -0.2588198 -0.9659257 5.591367E-08
vn -0.7071082 -0.7071054 -1.120665E-07
vn -0.9659257 -0.2588198 -1.823588E-07
vn -0.9659256 0.2588197 -2.462477E-07
vn -0.7071083 0.7071055 -1.898183E-07
vn -0.2588192 0.9659259 -1.212234E-07
vn 1.748456E-07 -1.192093E-07 -1
vn -1.748456E-07 1.192093E-07 1
usemtl mat23
f 4//1 3//1 2//1 1//1
f 3//2 6//2 5//2 2//2
f 6//3 8//3 7//3 5//3
f 8//4 10//4 9//4 7//4
f 10//5 12//5 11//5 9//5
f 12//6 14//6 13//6 11//6
f 14//7 16//7 15//7 13//7
f 16//8 18//8 17//8 15//8
f 18//9 20//9 19//9 17//9
f 20//10 22//10 21//10 19//10
f 22//11 24//11 23//11 21//11
f 24//12 4//12 1//12 23//12
f 1//13 2//13 5//13 7//13 9//13 11//13 13//13 15//13 17//13 19//13 21//13 23//13
f 24//14 22//14 20//14 18//14 16//14 14//14 12//14 10//14 8//14 6//14 3//14 4//14
f 28//15 27//15 26//15 25//15
f 27//16 30//16 29//16 26//16
f 30//17 32//17 31//17 29//17
f 32//18 34//18 33//18 31//18
f 34//19 36//19 35//19 33//19
f 36//20 38//20 37//20 35//20
f 38//21 40//21 39//21 37//21
f 40//22 42//22 41//22 39//22
f 42//23 44//23 43//23 41//23
f 44//24 46//24 45//24 43//24
f 46//25 48//25 47//25 45//25
f 48//26 28//26 25//26 47//26
f 48//27 46//27 44//27 42//27 40//27 38//27 36//27 34//27 32//27 30//27 27//27 28//27
f 25//28 26//28 29//28 31//28 33//28 35//28 37//28 39//28 41//28 43//28 45//28 47//28
f 52//29 51//29 50//29 49//29
f 51//30 54//30 53//30 50//30
f 54//31 56//31 55//31 53//31
f 56//32 58//32 57//32 55//32
f 58//33 60//33 59//33 57//33
f 60//34 62//34 61//34 59//34
f 62//35 64//35 63//35 61//35
f 64//36 66//36 65//36 63//36
f 66//37 68//37 67//37 65//37
f 68//38 70//38 69//38 67//38
f 70//39 72//39 71//39 69//39
f 72//40 52//40 49//40 71//40
f 49//41 50//41 53//41 55//41 57//41 59//41 61//41 63//41 65//41 67//41 69//41 71//41
f 72//42 70//42 68//42 66//42 64//42 62//42 60//42 58//42 56//42 54//42 51//42 52//42
f 76//43 75//43 74//43 73//43
f 75//44 78//44 77//44 74//44
f 78//45 80//45 79//45 77//45
f 80//46 82//46 81//46 79//46
f 82//47 84//47 83//47 81//47
f 84//48 86//48 85//48 83//48
f 86//49 88//49 87//49 85//49
f 88//50 90//50 89//50 87//50
f 90//51 92//51 91//51 89//51
f 92//52 94//52 93//52 91//52
f 94//53 96//53 95//53 93//53
f 96//54 76//54 73//54 95//54
f 73//55 74//55 77//55 79//55 81//55 83//55 85//55 87//55 89//55 91//55 93//55 95//55
f 96//56 94//56 92//56 90//56 88//56 86//56 84//56 82//56 80//56 78//56 75//56 76//56
f 110//64 109//64 108//64 107//64
f 114//65 113//65 112//65 111//65
f 108//66 114//66 111//66 107//66
f 112//67 113//67 109//67 110//67
f 111//68 112//68 110//68 107//68
f 109//69 113//69 114//69 108//69
f 118//70 117//70 116//70 115//70
f 122//71 121//71 120//71 119//71
f 116//72 122//72 119//72 115//72
f 120//73 121//73 117//73 118//73
f 119//74 120//74 118//74 115//74
f 117//75 121//75 122//75 116//75
f 126//76 125//76 124//76 123//76
f 125//77 128//77 127//77 124//77
f 128//78 130//78 129//78 127//78
f 130//79 132//79 131//79 129//79
f 132//80 134//80 133//80 131//80
f 134//81 136//81 135//81 133//81
f 136//82 138//82 137//82 135//82
f 138//83 140//83 139//83 137//83
f 140//84 142//84 141//84 139//84
f 142//85 144//85 143//85 141//85
f 144//86 146//86 145//86 143//86
f 146//87 126//87 123//87 145//87
f 123//88 124//88 127//88 129//88 131//88 133//88 135//88 137//88 139//88 141//88 143//88 145//88
f 146//89 144//89 142//89 140//89 138//89 136//89 134//89 132//89 130//89 128//89 125//89 126//89
f 168//113 167//113 166//113 165//113
f 167//114 170//114 169//114 166//114
f 170//115 172//115 171//115 169//115
f 172//116 174//116 173//116 171//116
f 174//117 176//117 175//117 173//117
f 176//118 178//118 177//118 175//118
f 178//119 180//119 179//119 177//119
f 180//120 182//120 181//120 179//120
f 182//121 184//121 183//121 181//121
f 184//122 186//122 185//122 183//122
f 186//123 188//123 187//123 185//123
f 188//124 168//124 165//124 187//124
f 165//125 166//125 169//125 171//125 173//125 175//125 177//125 179//125 181//125 183//125 185//125 187//125
f 188//126 186//126 184//126 182//126 180//126 178//126 176//126 174//126 172//126 170//126 167//126 168//126
usemtl mat16
f 101//57 100//57 99//57 98//57 97//57
f 106//58 105//58 104//58 103//58 102//58
f 98//59 106//59 102//59 97//59
f 103//60 104//60 100//60 101//60
f 102//61 103//61 101//61 97//61
f 99//62 105//62 106//62 98//62
f 104//63 105//63 99//63 100//63
usemtl mat17
f 150//90 149//90 148//90 147//90
f 154//91 153//91 152//91 151//91
f 155//92 147//92 148//92
f 149//93 150//93 156//93
f 155//94 156//94 150//94 147//94
f 149//95 158//95 157//95 148//95
f 162//96 161//96 160//96 159//96
f 158//97 162//97 159//97 157//97
f 161//98 153//98 154//98 160//98
f 155//99 164//99 163//99 156//99
f 164//100 151//100 152//100 163//100
f 158//101 149//101 156//101
f 162//102 158//102 156//102
f 161//103 162//103 156//103
f 153//104 161//104 156//104
f 163//105 152//105 153//105
f 156//106 163//106 153//106
f 164//107 155//107 148//107
f 154//108 151//108 164//108
f 160//109 154//109 164//109
f 159//110 160//110 164//110
f 157//111 159//111 164//111
f 148//112 157//112 164//112
